<svg preserveAspectRatio="none" width="100%" height="100%" overflow="visible" style="display: block;" viewBox="0 0 25 25" fill="none" xmlns="http://www.w3.org/2000/svg">
<g id="Frame">
<path id="Vector" fill-rule="evenodd" clip-rule="evenodd" d="M4.56517 12.785C2.64847 12.0169 2.69214 9.28859 4.63244 8.58221L18.6295 3.48652C20.4255 2.83266 22.1673 4.57443 21.5134 6.37048L16.4177 20.3675C15.7114 22.3078 12.9831 22.3514 12.215 20.4347L10.1458 15.2714C10.0695 15.0811 9.91877 14.9304 9.72856 14.8542L4.56517 12.785ZM5.14558 9.99171C4.49881 10.2271 4.48425 11.1366 5.12315 11.3926L10.2865 13.4618C10.8572 13.6905 11.3094 14.1427 11.5381 14.7134L13.6073 19.8768C13.8634 20.5157 14.7728 20.5011 15.0082 19.8543L20.1039 5.85734C20.3219 5.25866 19.7413 4.67807 19.1426 4.89602L5.14558 9.99171Z" fill="var(--fill-0, white)"/>
</g>
</svg>
