<svg preserveAspectRatio="none" width="100%" height="100%" overflow="visible" style="display: block;" viewBox="0 0 24 24" fill="none" xmlns="http://www.w3.org/2000/svg">
<g id="Frame">
<path id="Vector" d="M7.79706 21.2498H15.1559C17.365 21.2498 19.1559 19.4589 19.1559 17.2498V5.68281M4.9771 7.98144C5.05078 7.81926 5.15344 7.66997 5.28178 7.54154L9.63093 3.18967C9.75953 3.06099 9.9091 2.95808 10.0716 2.88428M4.9771 7.98144H8.57417C9.40301 7.98144 10.0747 7.30922 10.0742 6.48037L10.0716 2.88428M4.9771 7.98144C4.8894 8.17448 4.84277 8.38577 4.84277 8.60187V16.7332C4.84277 17.5617 5.51434 18.2332 6.34277 18.2332H14.6413C15.4698 18.2332 16.1413 17.5617 16.1413 16.7332V4.25C16.1413 3.42157 15.4698 2.75 14.6413 2.75H10.6919C10.4759 2.75 10.2646 2.79662 10.0716 2.88428" stroke="var(--stroke-0, white)" stroke-width="1.5" stroke-linecap="round" stroke-linejoin="round"/>
</g>
</svg>
